<svg viewBox="0 0 45 45" fill="none" xmlns="http://www.w3.org/2000/svg">
<path fill-rule="evenodd" clip-rule="evenodd" d="M39.375 2.8125H5.625C4.87908 2.8125 4.16371 3.10882 3.63626 3.63626C3.10882 4.16371 2.8125 4.87908 2.8125 5.625V39.375C2.8125 40.1209 3.10882 40.8363 3.63626 41.3637C4.16371 41.8912 4.87908 42.1875 5.625 42.1875H39.375C40.1209 42.1875 40.8363 41.8912 41.3637 41.3637C41.8912 40.8363 42.1875 40.1209 42.1875 39.375V5.625C42.1875 4.87908 41.8912 4.16371 41.3637 3.63626C40.8363 3.10882 40.1209 2.8125 39.375 2.8125ZM5.625 0C4.13316 0 2.70242 0.592632 1.64752 1.64752C0.592632 2.70242 0 4.13316 0 5.625L0 39.375C0 40.8668 0.592632 42.2976 1.64752 43.3525C2.70242 44.4074 4.13316 45 5.625 45H39.375C40.8668 45 42.2976 44.4074 43.3525 43.3525C44.4074 42.2976 45 40.8668 45 39.375V5.625C45 4.13316 44.4074 2.70242 43.3525 1.64752C42.2976 0.592632 40.8668 0 39.375 0L5.625 0Z" fill="current"/>
<path fill-rule="evenodd" clip-rule="evenodd" d="M5.625 42.1875V39.375C5.625 36.5625 8.4375 28.125 22.5 28.125C36.5625 28.125 39.375 36.5625 39.375 39.375V42.1875H5.625ZM22.5 25.3125C24.7378 25.3125 26.8839 24.4236 28.4662 22.8412C30.0486 21.2589 30.9375 19.1128 30.9375 16.875C30.9375 14.6372 30.0486 12.4911 28.4662 10.9088C26.8839 9.32645 24.7378 8.4375 22.5 8.4375C20.2622 8.4375 18.1161 9.32645 16.5338 10.9088C14.9514 12.4911 14.0625 14.6372 14.0625 16.875C14.0625 19.1128 14.9514 21.2589 16.5338 22.8412C18.1161 24.4236 20.2622 25.3125 22.5 25.3125Z" fill="current"/>
</svg>
