<svg viewBox="0 0 45 45" fill="none" xmlns="http://www.w3.org/2000/svg">
<path d="M38.25 4H6.75C4.95979 4 3.2429 4.71116 1.97703 5.97703C0.711159 7.2429 0 8.95979 0 10.75V33.25C0 35.0402 0.711159 36.7571 1.97703 38.023C3.2429 39.2888 4.95979 40 6.75 40H38.25C40.0402 40 41.7571 39.2888 43.023 38.023C44.2888 36.7571 45 35.0402 45 33.25V10.75C45 8.95979 44.2888 7.2429 43.023 5.97703C41.7571 4.71116 40.0402 4 38.25 4V4ZM36.7425 8.5L22.5 19.1875L8.2575 8.5H36.7425ZM38.25 35.5H6.75C6.15326 35.5 5.58097 35.2629 5.15901 34.841C4.73705 34.419 4.5 33.8467 4.5 33.25V11.3125L21.15 23.8C21.5395 24.0921 22.0132 24.25 22.5 24.25C22.9868 24.25 23.4605 24.0921 23.85 23.8L40.5 11.3125V33.25C40.5 33.8467 40.2629 34.419 39.841 34.841C39.419 35.2629 38.8467 35.5 38.25 35.5Z" fill="current"/>
</svg>
