<svg viewBox="0 0 50 50" fill="none" xmlns="http://www.w3.org/2000/svg">
<path d="M9.8034 0.0128174C4.41755 0.0128174 0.009552 4.42072 0.009552 9.80667V40.1987C0.009552 45.5846 4.41745 49.991 9.8034 49.991H40.1955C45.5814 49.991 49.9877 45.5846 49.9877 40.1987V9.80667C49.9877 4.42082 45.5814 0.0128174 40.1955 0.0128174H9.8034ZM12.2667 8.26022C14.8491 8.26022 16.4398 9.95552 16.4889 12.184C16.4889 14.3632 14.849 16.1062 12.2168 16.1062H12.1683C9.63505 16.1062 7.9977 14.3633 7.9977 12.184C7.9977 9.95557 9.6846 8.26022 12.2667 8.26022H12.2667ZM34.5207 18.6757C39.4872 18.6757 43.2102 21.9218 43.2102 28.8975V41.92H35.6626V29.7706C35.6626 26.7176 34.5702 24.6347 31.8388 24.6347C29.7536 24.6347 28.5107 26.0386 27.965 27.3948C27.7656 27.88 27.7166 28.5577 27.7166 29.2364V41.92H20.169C20.169 41.92 20.268 21.3393 20.169 19.2083H27.7182V22.4245C28.7212 20.877 30.5153 18.6757 34.5207 18.6757V18.6757ZM8.4429 19.21H15.9906V41.9201H8.4429V19.21Z" fill="#61892F"/>
</svg>
