<svg viewBox="0 0 45 45" fill="none" xmlns="http://www.w3.org/2000/svg">
<path d="M9 11.25H1.755C0.922498 11.25 0.0899979 11.97 0.202498 13.14L3.7125 35.6175C3.7125 35.6175 7.875 19.0575 8.685 15.075C8.9325 13.8825 10.0575 13.5 10.89 13.5H22.5C22.5 13.5 20.925 8.82 20.7675 8.3025C20.4975 7.3125 20.0025 6.75 19.0125 6.75H11.565C10.755 6.75 9.99 7.2675 9.765 8.19C9.5625 9.09 9 11.25 9 11.25ZM19.98 11.25H10.98C10.98 11.25 11.925 9 12.9375 9H17.73C18.81 9 19.98 11.25 19.98 11.25ZM6.0075 36.5625C5.31 37.62 4.2975 38.25 3.1725 38.25H38.565C39.78 38.25 40.635 37.5525 40.8825 36.3825C41.8725 31.455 44.6625 17.3925 44.6625 17.3925C44.82 16.2675 43.9875 15.75 43.2675 15.75H36V12.4425C36 12.0825 35.415 11.25 34.515 11.25H26.055C24.885 11.25 24.0975 12.555 24.0975 12.555L22.5 15.75H12.5775C11.8575 15.75 11.16 16.1775 11.025 16.875C11.025 16.875 7.4475 31.95 7.155 33.3675C6.9975 34.2 6.66 35.595 6.0075 36.5625ZM34.605 15.75H24.75C24.75 15.75 26.055 13.5 27.2925 13.5H32.445C34.0425 13.5 34.605 15.75 34.605 15.75Z" fill="current"/>
</svg>
